<mxfile host="app.diagrams.net" modified="2023-04-04T17:24:38.369Z" agent="Mozilla/5.0 (Windows NT 10.0; Win64; x64) AppleWebKit/537.36 (KHTML, like Gecko) Chrome/111.0.0.0 Safari/537.36" version="21.1.4" etag="mBI9t9W4VpPZLc3FmnbP" type="github">
  <diagram name="Страница 1" id="aNoHkpssrDrtj4n_lZnh">
    <mxGraphModel>
      <root>
        <mxCell id="0" />
        <mxCell id="1" parent="0" />
      </root>
    </mxGraphModel>
  </diagram>
</mxfile>
